<svg width="24" height="24" viewBox="0 0 24 24" fill="none" xmlns="http://www.w3.org/2000/svg">
  <path d="M4 6.9C4 5.85066 4 5.32599 4.16349 4.91329C4.37407 4.39461 4.77925 3.98944 5.29794 3.77885C5.71063 3.61536 6.2353 3.61536 7.28464 3.61536H16.7155C17.7648 3.61536 18.2895 3.61536 18.7022 3.77885C19.2209 3.98944 19.6261 4.39461 19.8366 4.91329C20.0001 5.32599 20.0001 5.85066 20.0001 6.9V17.1C20.0001 18.1493 20.0001 18.674 19.8366 19.0867C19.6261 19.6054 19.2209 20.0106 18.7022 20.2211C18.2895 20.3846 17.7648 20.3846 16.7155 20.3846H7.28464C6.2353 20.3846 5.71063 20.3846 5.29794 20.2211C4.77925 20.0106 4.37407 19.6054 4.16349 19.0867C4 18.674 4 18.1493 4 17.1V6.9Z" stroke="url(#paint0_linear)" stroke-width="2"/>
  <path d="M8 9L11 12L8 15" stroke="url(#paint1_linear)" stroke-width="2" stroke-linecap="round" stroke-linejoin="round"/>
  <path d="M13 15H16" stroke="url(#paint2_linear)" stroke-width="2" stroke-linecap="round"/>
  <defs>
    <linearGradient id="paint0_linear" x1="4" y1="3.61536" x2="20.0001" y2="20.3846" gradientUnits="userSpaceOnUse">
      <stop stop-color="#2563EB"/>
      <stop offset="1" stop-color="#7C3AED"/>
    </linearGradient>
    <linearGradient id="paint1_linear" x1="8" y1="9" x2="11" y2="15" gradientUnits="userSpaceOnUse">
      <stop stop-color="#2563EB"/>
      <stop offset="1" stop-color="#7C3AED"/>
    </linearGradient>
    <linearGradient id="paint2_linear" x1="13" y1="15" x2="16" y2="15" gradientUnits="userSpaceOnUse">
      <stop stop-color="#2563EB"/>
      <stop offset="1" stop-color="#7C3AED"/>
    </linearGradient>
  </defs>
</svg>